<svg xmlns="http://www.w3.org/2000/svg" version="1.1" xmlns:xlink="http://www.w3.org/1999/xlink" xmlns:svgjs="http://svgjs.dev/svgjs" width="2000" height="2242" viewBox="0 0 2000 2242"><g transform="matrix(1,0,0,1,-3.115249221184058,0)"><svg viewBox="0 0 321 360" data-background-color="#8e4739" preserveAspectRatio="xMidYMid meet" height="2242" width="2000" xmlns="http://www.w3.org/2000/svg" xmlns:xlink="http://www.w3.org/1999/xlink"><g id="tight-bounds" transform="matrix(1,0,0,1,0.5000025000000505,0)"><svg viewBox="0 0 320 360" height="360" width="320"><g><svg></svg></g><g><svg viewBox="0 0 320 360" height="360" width="320"><g><path transform="translate(-19.44751,3.1739) scale(3.53591,3.53591)" d="M67.6 10.7c0.2 0 1.8 0.8 2.7 1.1-0.3 0.1-1-0.2-1.8-0.5 0.2 0 0.6 0.1 1 0.3-0.2-0.2-1.7-0.7-1.9-0.9M52.7 7.6c0.3-0.1 3.8 0.4 5.4 0.5 0.1-0.1-0.2-0.1-0.6-0.2 0.5-0.1 1.5 0.2 2.2 0.3-2.1 0.1-4.4-0.5-6.4-0.3-0.7 0-0.2-0.2-0.6-0.3M49.8 7.6c1.8 0 3.2 0 0.6 0.2-0.3-0.1-0.7-0.1-0.6-0.2M78.1 15.9c0.2 0 1 0.9 1.4 1.2-0.1 0.1-0.9-0.7-1.3-1 0.1 0.1 0 0-0.1-0.2M76.1 14.6c-0.8-0.7-1.1-0.7-1.2-1.1 0.7 0.4 1.2 0.8 1.2 1.1M63.2 8.3c0.1-0.1 0.3 0.1 0.8 0.2-0.6-0.1-0.5 0-0.3 0.2-0.7-0.1-0.9-0.2-0.7-0.4 0.4 0.2 0.5 0.1 0.2 0M34.8 9.5c0-0.1 0.4-0.3 0.7-0.4-0.3 0.2-0.2 0.3 0.3 0.1 0 0.1-0.6 0.3-1 0.5 0.2-0.1 0.4-0.4 0-0.2M65.2 7.3c-0.3 0.1-1.4-0.5-2.5-0.7-0.6-0.2 2.4 0.5 2.5 0.7M6.2 56.7c0.6 2.5 0.2 2.4 0 0M6.3 41.7c0.1-0.4 0.2-1.5 0.3-1.4-0.3 2.4-0.8 3.5-0.9 5.3 0.3-1.6-0.1 0.9-0.2 1.5 0.1 0.8 0.1-0.5 0.3-0.3 0.2 0.3-0.4 4.5-0.2 2.2-0.2 2.1 0 4.4 0.4 5-0.5 3.2 2 10.4 2.5 11.9 0.1 0.1 0-0.5 0.2-0.1 0.2 1.3 1.1 2.2 1.4 3.6 0.3 0.4 1.5 2.6 1.7 3.1 0.4 0.8 0.6 0.7 1 1.5 1.2 2.3 3.1 4.5 4.9 6.6 5.8 6.8 14.7 12.4 24.6 14.4 9.9 2.1 20.3 0.6 28.4-3.3 0.5-0.3 0.4-0.4 1-0.6 2.8-0.9 6.2-3.8 8.1-4.9 0.9-1 3.3-2.7 3.6-3.7 1.7-1.4 3.4-3.7 4.3-5.2 0.5-0.8 0.9-0.8 1.1-1.3-0.1 0 1.6-2.1 2.1-3.3-0.2 0-0.5 0.6-0.5 0 3.6-6.9 5.6-16.2 4.5-22.6 0.2 7.9-1.8 16.7-5.6 22.3-1.7 3.6-5.2 7.5-8.4 10.3-0.5 0.5-1 1.1-1.6 1.5-1.9 1.6-4 2.9-6.2 4.1-5.2 2.9-11 5.4-17.8 5.5 11.7-1 22.2-6.9 28-14.1-4.4 4.3-6.3 6-11.2 8.5-0.4 0.7-3.7 2.1-5.9 2.7 1.3-0.6 4-1.6 4.9-2.4-7.3 3.5-15.4 5.5-23 4.4 2.9 0 7 0.1 10.9-0.6 0.6-0.2 0.9-0.4 1.6-0.5 7.6-1.7 14.9-5.4 20.1-10.6-3 2.7-7.5 5.9-10.4 6.9 2.7-1.5 7.6-4.4 9.2-6.6-3.2 3.2-9.2 6.4-13 7.8-0.6 0.1 0.4-0.4-0.6 0-1.2 0.3-0.7 0.3-1 0.5-4.6 1.3-9.9 2.4-14.3 2-0.8-0.1-1.1-0.3-1.8-0.3-0.8-0.1-1.5-0.1-2.4-0.1-3.5-0.4-7.3-1.8-10.1-3-1.5-0.7-3-1.2-4.5-2.1-1.2-0.7-2.2-1.5-3.2-2.3-3.8-2.8-7-5.6-10-9.6-5.4-7.5-8.2-16.9-7.8-26.2 0.4-9.3 4.1-18.4 10-25.1-0.3 0.3 0.4-0.7 1-1.3 0 0.2-0.1 0.5 0.6-0.2 0.6-0.7-0.2-0.2 0.1-0.6 6.2-6.8 17-12.3 28.1-12.5 0.4-0.3 1.1-0.7 1.9-0.5 0 0.1-0.5 0.1-0.5 0.1 1.1-0.1 2.1-0.1 2.6 0.1 0.1-0.1-0.4-0.2 0-0.2 0.7 0.2 0.9 0 1.3 0.2-0.3 0-0.6 0-0.8 0.1 2.5 0 4.1 0.6 6.6 0.8-1.3-0.3-1.6-0.3-2.6-0.6 1.1 0.2 1.6 0.4 2.1 0.3-0.2 0-0.1-0.3 0.1-0.2 2 0.5 2.2 0.7 4.3 1.4 0.2-0.2-0.9-0.3-1.2-0.6 2 0.7 3.8 1.2 5 2-0.4-0.3-1.6-0.7-2.5-1.1-0.1 0.1 0.3 0.2 0.4 0.4-1-0.5-2.4-1-3.8-1.2 1.2 0.3 2 0.7 2.5 0.9-1.1-0.2-2.5-0.9-4.1-1.2 2.6 0.8 7.5 2.6 10.5 4.2-1.1-0.7-2.4-1.2-3.1-1.6 0.6 0.1 1.3 0.5 1.3 0.3 0.7 0.3 1.6 1 2.1 1.1-0.9-0.6-2.7-1.5-3.3-1.8 7.5 3.4 14.2 9.1 18.5 16.4 0.4 0.7 1 2.3 1.5 2.5-0.1-0.5-0.5-0.8-0.9-1.6 0.2 0 0.2-0.3 0-0.6-0.4-0.5 0 0.4-0.4-0.1-1.8-3.3-4-6.2-7.4-9.4 1.9 1.8 0.5 0.5 0.1-0.1 2.6 2.3 5.6 6.2 6.9 8.2-0.2-0.3-0.3-0.5-0.2-0.5 2.4 4.1 3.9 7.8 5.4 13.1 0.1 0.1 0-0.4 0.2-0.1 1 4.2 1.3 7.7 1.2 10.9 0.8-5.4-1-13.8-4.2-20.4-0.4-0.8-0.4-0.2-0.8-1.1 0-0.3-0.3-0.9-0.5-1.3-4-6.6-8.9-11.3-14.7-15 0.4 0.2 1.2 0.8 1.2 0.7-10.8-7.1-23.3-8.1-33.6-5.9-0.7 0.3-1 0.6-1.8 1 1.5-0.5 2.4-0.6 3.8-0.9 0.3-0.3-1.3 0.1-0.6-0.2 0.1 0.1 1.4-0.2 1.7-0.1 0 0.1-0.4 0.2-0.5 0.3 3.3-0.7 6.7-0.8 9.6-0.6-1.7 0.1-4.8-0.2-5.8 0.3 1-0.1 2.4-0.2 3.3-0.1-1.2 0-3.4 0.1-4.4 0.2-0.1-0.1 1.6-0.3 0.5-0.3-0.5 0.1-1.3 0.1-1.6 0.4-8.6 0.8-17 5.3-22.9 10.6-1.2 1-2.6 2.1-3.5 3.2-2.2 2.5-3.6 5-5.2 7.2 1-2.1 3.2-5.3 5.8-8 2.6-2.7 5.4-5 6.9-6.2 0 0.4 2.4-1.5 3.3-2.1-0.6 0.5 0.4-0.2 0.6-0.1 3.2-1.9 5.8-2.6 8.7-3.7-0.7 0.2-1.3 0.4-1.4 0.3 0.7-0.2 1.1-0.4 1-0.5-2.8 0.8-7.2 2.7-10.7 4.8 6.3-4.3 14.3-6.9 22.2-7 7.9-0.2 15.6 1.8 21.7 5 4.1 1.8 8 5.1 11.1 8.3 0.9 0.8 0.2-0.2 1.5 1.2-0.4-0.2-0.7-0.4-0.2 0.2 0.8 0.9-0.2-0.7 1.1 0.9-0.1 0-0.5-0.5-0.5-0.3 3.5 3.1 6.2 8.7 7.8 12.4-0.4-1.5-1.4-3.6-2.2-5.1 2.4 4.4 3.2 7 4.2 10.9 0.4 0.3-0.2-1.4 0.2-0.6 0.1 0.6 0.2 2.5 0.6 2.8-0.3-1.9-0.8-4.2-1.2-4.6 0.3 0.2-0.5-2.3-1-2.9-0.2-1.6-1.6-4.4-2.8-6.5-4.3-8.4-12-15.3-20.6-19.1 0-0.2-0.5-0.4-0.7-0.6-8.5-3.6-18.7-4.6-28.5-2.3-9.9 2.4-19.2 8.1-25.8 16.3 0.3-1 2.8-2.9 2.9-3.7-2.9 3.1-6 7.2-8.1 11.6-2.2 4.4-3.4 8.9-3.9 12.2" fill="#ddd2c6" fill-rule="nonzero" stroke="none" stroke-width="1" stroke-linecap="butt" stroke-linejoin="miter" stroke-miterlimit="10" stroke-dasharray="" stroke-dashoffset="0" font-family="none" font-weight="none" font-size="none" text-anchor="none" style="mix-blend-mode: normal" data-fill-palette-color="tertiary"></path></g><g transform="matrix(1,0,0,1,48,101.03271778774135)"><svg viewBox="0 0 224 157.9345644245173" height="157.9345644245173" width="224"><g><svg viewBox="0 0 224 157.9345644245173" height="157.9345644245173" width="224"><g transform="matrix(1,0,0,1,0,96.55279789971402)"><svg viewBox="0 0 224 61.3817665248033" height="61.3817665248033" width="224"><g id="textblocktransform"><svg viewBox="0 0 224 61.3817665248033" height="61.3817665248033" width="224" id="textblock"><g><svg viewBox="0 0 224 49.65856996236744" height="49.65856996236744" width="224"><g transform="matrix(1,0,0,1,0,0)"><svg width="224" viewBox="4.65 -32.05 146.13 32.4" height="49.65856996236744" data-palette-color="#ddd2c6"><path d="M14.3-28.7L8.7-28.6 8.6-17.45 14-17.35 19.2-17.5 19.5-17.1 19.15-14.05 13.6-14.2 8.55-14.15 8.5-10 8.7 0 4.65 0 4.9-9.65 4.65-32.05 21.7-32.05 22-31.65 21.65-28.45 14.3-28.7ZM29.95-24.9L29.8-7.8 29.9 0 26.2 0 26.35-7.5 26.2-24.9 29.95-24.9ZM52.34-3.15L52.55-2.8 52.3 0 39.05 0 39.2-7.5 39.05-24.9 42.8-24.9 42.65-7.8 42.75-3.15 52.34-3.15ZM68.64-24.9L77.39 0 73.64 0 73.04-2.7 71.74-6.4 65.79-6.45 60.49-6.4 59.14-2.9 58.44 0 54.74 0 64.34-24.9 68.64-24.9ZM66.09-9.4L70.69-9.45 66.54-21.25 66.24-21.25 61.69-9.45 66.09-9.4ZM93.69-25.15Q97.59-25.15 101.54-23.45L101.54-23.45 100.29-19.85 99.84-19.85Q97.99-21.05 96.44-21.53 94.89-22 93.09-22L93.09-22Q88.84-22 86.72-19.6 84.59-17.2 84.59-12.1L84.59-12.1Q84.59-7.2 86.54-5.03 88.49-2.85 92.74-2.85L92.74-2.85Q93.99-2.85 95.14-3.08 96.29-3.3 97.94-3.9L97.94-3.9 97.94-6.4 97.89-9.95 101.34-10.2 101.34-1.2Q96.29 0.3 92.59 0.3L92.59 0.3Q86.69 0.3 83.67-2.88 80.64-6.05 80.64-11.95L80.64-11.95Q80.64-18.35 84.06-21.75 87.49-25.15 93.69-25.15L93.69-25.15ZM118.99-25.2Q124.44-25.2 127.36-22 130.29-18.8 130.29-12.95L130.29-12.95Q130.29-6.6 127.16-3.13 124.04 0.35 118.24 0.35L118.24 0.35Q112.84 0.35 109.89-2.93 106.94-6.2 106.94-12.25L106.94-12.25Q106.94-18.45 110.09-21.83 113.24-25.2 118.99-25.2L118.99-25.2ZM118.64-22.05Q114.69-22.05 112.76-19.8 110.84-17.55 110.84-12.7L110.84-12.7Q110.84-7.5 112.74-5.15 114.64-2.8 118.54-2.8L118.54-2.8Q122.54-2.8 124.49-5.1 126.44-7.4 126.44-12.3L126.44-12.3Q126.44-17.35 124.51-19.7 122.59-22.05 118.64-22.05L118.64-22.05ZM150.59-24.9L150.78-24.6 150.53-21.45 145.88-21.8 143.38-21.8 143.23-7.8 143.38 0 139.63 0 139.78-7.5 139.69-21.8 137.19-21.8 132.44-21.45 132.13-21.8 132.44-24.9 150.59-24.9Z" opacity="1" transform="matrix(1,0,0,1,0,0)" fill="#ddd2c6" class="wordmark-text-0" data-fill-palette-color="primary" id="text-0"></path></svg></g></svg></g><g transform="matrix(1,0,0,1,0,61.3817665248033)"><svg viewBox="0 0 224 0" height="0" width="224"><g transform="matrix(1,0,0,1,0,0)"><svg width="224" viewBox="0 0 0 0" height="0" data-palette-color="#ddd2c6"><path d="M0 0" opacity="1" transform="matrix(1,0,0,1,0,0)" fill="#ddd2c6" class="slogan-text-1" data-fill-palette-color="secondary" id="text-1"></path></svg></g></svg></g></svg></g></svg></g><g transform="matrix(1,0,0,1,69.58519933136093,0)"><svg viewBox="0 0 84.82960133727815 84.82960133727816" height="84.82960133727816" width="84.82960133727815"><g><svg></svg></g><g id="icon-0"><svg viewBox="0 0 84.82960133727815 84.82960133727816" height="84.82960133727816" width="84.82960133727815"><g><path transform="scale(0.8483,0.8483)" d="M30 100c-16.569 0-30-13.431-30-30v-40c0-16.569 13.431-30 30-30h40c16.569 0 30 13.431 30 30v40c0 16.569-13.431 30-30 30z" fill="#c9a07a" fill-rule="nonzero" stroke="none" stroke-width="1" stroke-linecap="butt" stroke-linejoin="miter" stroke-miterlimit="10" stroke-dasharray="" stroke-dashoffset="0" font-family="none" font-weight="none" font-size="none" text-anchor="none" style="mix-blend-mode: normal" data-fill-palette-color="accent"></path></g><g transform="matrix(1,0,0,1,16.965920267455626,28.90311822270773)"><svg viewBox="0 0 50.897760802366896 27.023364891862705" height="27.023364891862705" width="50.897760802366896"><g><svg xmlns="http://www.w3.org/2000/svg" data-name="Layer 1" viewBox="50.66 109.65223725980428 325.78 172.96776274019572" x="0" y="0" height="27.023364891862705" width="50.897760802366896" class="icon-dxe-0" data-fill-palette-color="quaternary" id="dxe-0"><path d="M360.12 221L376.44 201.41 355.31 219Q354.38 229.27 353.44 239.56H318.94L311.04 231.66C315.52 227.92 321.04 221.03 326.44 219 332.15 216.83 341.14 218.2 347.35 217.87L364.78 190.18 345.57 214.4C338.97 214.05 330.01 211.82 323.77 213.56S310.66 222.3 305.28 225.89L291.42 212C300.16 202.43 310.54 204.19 323.27 203L335.32 213 324.56 200 304.28 198 316.28 184.91 344.7 183.63 360.35 166.5 343.85 181.58 314.35 180.25 293.35 199.48C284.59 207.48 281.98 206.38 269.58 206.38L299 169.67 264.75 201.14 264.11 182.72 272.75 173.45H273.13V173.08L293.38 151.37 292.66 130.82 311.2 110.9 290.71 130Q290.35 140 290.01 150L272.4 166.41Q271.77 160.47 271.15 154.52L265.35 149.83 271.17 141.03C270.52 137.86 269.88 134.69 269.23 131.52L267.59 139.52 259.37 145 253.37 140.13 266.56 156.43 264.77 173.43H264.87L257.76 180.06Q257.29 193.19 256.84 206.32H229.44L228.44 188.45 245.8 169.13 225.6 187.27Q224.21 213.4 222.8 239.53H215.9V180.87C234.12 175.05 235.32 112.12 214.81 109.73 192.11 107.08 192.89 172.99 210.34 180.58 208.68 199.95 210.34 220.09 210.34 239.58H204.25Q202.84 213.45 201.45 187.32L181.25 169.18 198.6 188.5 197.6 206.37H170.2Q169.75 193.23 169.29 180.11L162.18 173.48H162.28L160.48 156.48 173.67 140.18 166.44 146 166.7 145.74 157.3 139.52 155.66 131.52C155.01 134.69 154.37 137.86 153.72 141.03L160.31 151.03 156 154.52Q155.37 160.46 154.75 166.41L137.09 150Q136.73 140 136.39 130L115.89 110.88 134.46 130.8Q134.1 141.07 133.75 151.35L154 173.08V173.45H154.37L163.02 182.72 162.37 201.29 128.12 169.82 157.51 206.34C145.26 206.34 142.57 207.34 133.87 199.44L112.87 180.21 83.37 181.54 66.78 166.46 82.44 183.59 110.86 184.87 122.86 197.96 102.58 199.9 91.77 213 103.77 203.05C116.48 204.27 126.9 202.53 135.62 212.05L122.51 225.16C117.42 221.77 110.78 215.16 104.9 213.42S89.6 214.08 83.34 214.42L64.17 190.17 81.6 217.86C87.67 218.18 96.67 216.81 102.24 218.98 107.46 220.98 112.52 227.13 116.9 230.8L108.29 239.41 108.43 239.55H73.66Q72.73 229.26 71.79 218.99L50.66 201.39 67 221 65.31 239.57H52.46V246.23H313.76L314.16 246.64 314.56 246.23H372.67V239.57H361.82ZM203.77 145.4C203.77 140.27 204.58 115.11 213.55 115.11S223.33 140.11 223.33 145.4 222.72 174.66 214.17 175.51C204.69 176.43 203.77 150.22 203.77 145.38ZM144.83 214.74H197.21L196.72 223.82 147.15 227.75 196.3 231.64 195.88 239.57H120ZM231.22 239.57L230.8 231.64 280 227.73 230.43 223.8 229.94 214.72H282.31L307.14 239.55Z" fill="#8e4739" data-fill-palette-color="quaternary"></path><path d="M309.94 249C315.04 254.7 314.94 269.27 309.94 274.91H351.61C346.51 269.21 346.61 254.64 351.61 249Z" fill="#8e4739" data-fill-palette-color="quaternary"></path><path d="M216.16 249C221.26 254.7 221.16 269.27 216.16 274.91H257.83C252.73 269.21 252.83 254.64 257.83 249Z" fill="#8e4739" data-fill-palette-color="quaternary"></path><path d="M360.31 262C360.31 267.72 358.89 272.65 356.83 274.95H372.67V249H356.83C358.89 251.31 360.31 256.24 360.31 262" fill="#8e4739" data-fill-palette-color="quaternary"></path><path d="M263.05 249C268.15 254.7 268.05 269.27 263.05 274.91H304.72C299.62 269.21 299.72 254.64 304.72 249Z" fill="#8e4739" data-fill-palette-color="quaternary"></path><rect x="52.46" y="277.72" width="320.21" height="4.9" fill="#8e4739" data-fill-palette-color="quaternary"></rect><path d="M169.27 249C174.37 254.7 174.27 269.27 169.27 274.91H210.94C205.84 269.21 205.94 254.64 210.94 249Z" fill="#8e4739" data-fill-palette-color="quaternary"></path><path d="M52.46 249V274.91H70.27C65.17 269.21 65.27 254.64 70.27 249Z" fill="#8e4739" data-fill-palette-color="quaternary"></path><path d="M122.38 249C127.48 254.7 127.38 269.27 122.38 274.91H164.05C158.95 269.21 159.05 254.64 164.05 249Z" fill="#8e4739" data-fill-palette-color="quaternary"></path><path d="M75.49 249C80.59 254.7 80.49 269.27 75.49 274.91H117.16C112.06 269.21 112.16 254.64 117.16 249Z" fill="#8e4739" data-fill-palette-color="quaternary"></path></svg></g></svg></g></svg></g></svg></g><g></g></svg></g></svg></g></svg></g><defs></defs></svg><rect width="320" height="360" fill="none" stroke="none" visibility="hidden"></rect></g></svg></g></svg>